<svg width="58" height="49" viewBox="0 0 58 49" fill="none" xmlns="http://www.w3.org/2000/svg">
<g filter="url(#filter0_d_29_22)">
<path d="M49.8545 0.705428C49.2772 0.314086 48.6169 0.0773331 47.9318 0.0159788C47.2467 -0.0453755 46.5577 0.0705482 45.9254 0.35356L25.2052 8.90396C24.7147 9.11314 24.1901 9.22069 23.6604 9.22064H10.3955C9.28221 9.22064 8.21449 9.68404 7.42726 10.5089C6.64002 11.3337 6.19776 12.4525 6.19776 13.619V13.9709H2V24.5269H6.19776V24.9843C6.22407 26.1325 6.67792 27.2243 7.46232 28.0264C8.24672 28.8286 9.29944 29.2775 10.3955 29.2771L15.4328 40.4665C15.7739 41.22 16.3109 41.8575 16.9822 42.3056C17.6534 42.7537 18.4317 42.9944 19.2276 43H21.3433C22.4508 42.9907 23.5099 42.5232 24.2899 41.6994C25.0698 40.8755 25.5075 39.7621 25.5075 38.6016V29.6994L45.9254 38.2498C46.4276 38.4592 46.9632 38.5667 47.5037 38.5665C48.3423 38.5523 49.1589 38.2834 49.8545 37.7924C50.4068 37.4016 50.8624 36.8786 51.1836 36.2668C51.5048 35.6549 51.6823 34.9717 51.7015 34.2737V4.32967C51.6984 3.61368 51.5286 2.90929 51.2067 2.27769C50.8848 1.6461 50.4206 1.10638 49.8545 0.705428ZM21.3097 13.619V24.9843H10.3955V13.619H21.3097ZM21.3097 38.6016H19.194L15.0634 29.2771H21.3097V38.6016ZM26.75 25.5121C26.3513 25.2986 25.9355 25.122 25.5075 24.9843V13.3727C25.9314 13.281 26.3471 13.1515 26.75 12.9856L47.5037 4.32967V34.1681L26.75 25.5121ZM51.8022 14.8505V23.6472C52.9156 23.6472 53.9833 23.1838 54.7705 22.359C55.5577 21.5341 56 20.4154 56 19.2489C56 18.0824 55.5577 16.9636 54.7705 16.1388C53.9833 15.3139 52.9156 14.8505 51.8022 14.8505Z" fill="url(#paint0_linear_29_22)"/>
</g>
<defs>
<filter id="filter0_d_29_22" x="0" y="0" width="58" height="49" filterUnits="userSpaceOnUse" color-interpolation-filters="sRGB">
<feFlood flood-opacity="0" result="BackgroundImageFix"/>
<feColorMatrix in="SourceAlpha" type="matrix" values="0 0 0 0 0 0 0 0 0 0 0 0 0 0 0 0 0 0 127 0" result="hardAlpha"/>
<feOffset dy="4"/>
<feGaussianBlur stdDeviation="1"/>
<feComposite in2="hardAlpha" operator="out"/>
<feColorMatrix type="matrix" values="0 0 0 0 0 0 0 0 0 0 0 0 0 0 0 0 0 0 0.25 0"/>
<feBlend mode="normal" in2="BackgroundImageFix" result="effect1_dropShadow_29_22"/>
<feBlend mode="normal" in="SourceGraphic" in2="effect1_dropShadow_29_22" result="shape"/>
</filter>
<linearGradient id="paint0_linear_29_22" x1="53.5" y1="-1.08006e-06" x2="-11" y2="47.5" gradientUnits="userSpaceOnUse">
<stop stop-color="#D67A96"/>
<stop offset="1" stop-color="#FC3F78"/>
</linearGradient>
</defs>
</svg>
