<svg width="56" height="60" viewBox="0 0 56 60" fill="none" xmlns="http://www.w3.org/2000/svg">
<g filter="url(#filter0_d_29_30)">
<path d="M49.0165 54.475C51.4273 54.475 53.3817 52.036 53.3817 49.0275C53.3817 46.0189 51.4273 43.58 49.0165 43.58C46.6057 43.58 44.6514 46.0189 44.6514 49.0275C44.6514 52.036 46.6057 54.475 49.0165 54.475Z" fill="url(#paint0_linear_29_30)"/>
<path d="M17.3696 54.475C19.7804 54.475 21.7347 52.036 21.7347 49.0275C21.7347 46.0189 19.7804 43.58 17.3696 43.58C14.9587 43.58 13.0044 46.0189 13.0044 49.0275C13.0044 52.036 14.9587 54.475 17.3696 54.475Z" fill="url(#paint1_linear_29_30)"/>
<path d="M52.2906 36.7707H19.8543C19.0972 36.7707 18.6034 35.9758 18.9386 35.2971C19.2507 34.6652 19.3424 33.9012 19.1929 33.1821C18.8178 31.3799 20.1242 29.6628 21.9612 29.5437L50.1113 27.7183C51.3107 27.642 52.2906 26.3523 52.2906 24.8542V6.80938C52.2906 5.31132 51.3085 4.08563 50.1081 4.08563H15.225C14.0069 4.08563 12.9559 3.23114 12.7074 2.03873C12.5858 1.45493 12.3124 0.937999 11.93 0.569027C11.5477 0.200055 11.078 -8.60466e-05 10.5946 2.77518e-08H3.18258C2.60372 2.77518e-08 2.04858 0.286966 1.63926 0.797768C1.22995 1.30857 1 2.00137 1 2.72375C1 3.44614 1.22995 4.13893 1.63926 4.64973C2.04858 5.16054 2.60372 5.4475 3.18258 5.4475C6.51746 5.4475 9.39481 7.78732 10.0748 11.0521L13.6803 28.3633C14.3637 31.6444 13.9281 35.0598 12.4433 38.0644C12.2394 38.477 12.1276 38.9501 12.1193 39.4347C12.1111 39.9193 12.2067 40.3978 12.3963 40.8209C12.5852 41.2444 12.8613 41.5973 13.1961 41.8429C13.5309 42.0886 13.9123 42.2181 14.3006 42.2182H52.2906C52.8695 42.2182 53.4246 41.9312 53.834 41.4204C54.2433 40.9096 54.4732 40.2168 54.4732 39.4944C54.4732 38.772 54.2433 38.0792 53.834 37.5684C53.4246 37.0576 52.8695 36.7707 52.2906 36.7707Z" fill="url(#paint2_linear_29_30)"/>
</g>
<defs>
<filter id="filter0_d_29_30" x="0" y="0" width="55.4731" height="59.475" filterUnits="userSpaceOnUse" color-interpolation-filters="sRGB">
<feFlood flood-opacity="0" result="BackgroundImageFix"/>
<feColorMatrix in="SourceAlpha" type="matrix" values="0 0 0 0 0 0 0 0 0 0 0 0 0 0 0 0 0 0 127 0" result="hardAlpha"/>
<feOffset dy="4"/>
<feGaussianBlur stdDeviation="0.5"/>
<feComposite in2="hardAlpha" operator="out"/>
<feColorMatrix type="matrix" values="0 0 0 0 0 0 0 0 0 0 0 0 0 0 0 0 0 0 0.25 0"/>
<feBlend mode="normal" in2="BackgroundImageFix" result="effect1_dropShadow_29_30"/>
<feBlend mode="normal" in="SourceGraphic" in2="effect1_dropShadow_29_30" result="shape"/>
</filter>
<linearGradient id="paint0_linear_29_30" x1="52.1616" y1="43.08" x2="40.9182" y2="52.9892" gradientUnits="userSpaceOnUse">
<stop stop-color="#D67A96"/>
<stop offset="1" stop-color="#FC3F78"/>
</linearGradient>
<linearGradient id="paint1_linear_29_30" x1="20.5146" y1="43.08" x2="9.2712" y2="52.9892" gradientUnits="userSpaceOnUse">
<stop stop-color="#D67A96"/>
<stop offset="1" stop-color="#FC3F78"/>
</linearGradient>
<linearGradient id="paint2_linear_29_30" x1="47" y1="-1.9375" x2="5.39145" y2="56.027" gradientUnits="userSpaceOnUse">
<stop stop-color="#D67A96"/>
<stop offset="1" stop-color="#FC3F78"/>
</linearGradient>
</defs>
</svg>
