<svg width="1440" height="320" viewBox="0 0 1440 320" fill="none" xmlns="http://www.w3.org/2000/svg">
<g clip-path="url(#clip0_31_95)">
<g filter="url(#filter0_d_31_95)">
<path d="M0 128H6.2C12.3 128 25 128 37 112C49.2 96 62 64 74 58.7C86.2 53 98 75 111 85.3C123.1 96 135 96 148 128C160 160 172 224 185 213.3C196.9 203 209 117 222 112C233.8 107 246 181 258 218.7C270.8 256 283 256 295 213.3C307.7 171 320 85 332 58.7C344.6 32 357 64 369 112C381.5 160 394 224 406 224C418.5 224 431 160 443 144C455.4 128 468 160 480 154.7C492.3 149 505 107 517 85.3C529.2 64 542 64 554 80C566.2 96 578 128 591 128C603.1 128 615 96 628 80C640 64 652 64 665 74.7C676.9 85 689 107 702 106.7C713.8 107 726 85 738 117.3C750.8 149 763 235 775 250.7C787.7 267 800 213 812 186.7C824.6 160 837 160 849 176C861.5 192 874 224 886 208C898.5 192 911 128 923 133.3C935.4 139 948 213 960 202.7C972.3 192 985 96 997 90.7C1009.2 85 1022 171 1034 197.3C1046.2 224 1058 192 1071 165.3C1083.1 139 1095 117 1108 128C1120 139 1132 181 1145 208C1156.9 235 1169 245 1182 250.7C1193.8 256 1206 256 1218 250.7C1230.8 245 1243 235 1255 229.3C1267.7 224 1280 224 1292 218.7C1304.6 213 1317 203 1329 192C1341.5 181 1354 171 1366 160C1378.5 149 1391 139 1403 160C1415.4 181 1428 235 1434 261.3L1440 288V0H1433.8C1427.7 0 1415 0 1403 0C1390.8 0 1378 0 1366 0C1353.8 0 1342 0 1329 0C1316.9 0 1305 0 1292 0C1280 0 1268 0 1255 0C1243.1 0 1231 0 1218 0C1206.2 0 1194 0 1182 0C1169.2 0 1157 0 1145 0C1132.3 0 1120 0 1108 0C1095.4 0 1083 0 1071 0C1058.5 0 1046 0 1034 0C1021.5 0 1009 0 997 0C984.6 0 972 0 960 0C947.7 0 935 0 923 0C910.8 0 898 0 886 0C873.8 0 862 0 849 0C836.9 0 825 0 812 0C800 0 788 0 775 0C763.1 0 751 0 738 0C726.2 0 714 0 702 0C689.2 0 677 0 665 0C652.3 0 640 0 628 0C615.4 0 603 0 591 0C578.5 0 566 0 554 0C541.5 0 529 0 517 0C504.6 0 492 0 480 0C467.7 0 455 0 443 0C430.8 0 418 0 406 0C393.8 0 382 0 369 0C356.9 0 345 0 332 0C320 0 308 0 295 0C283.1 0 271 0 258 0C246.2 0 234 0 222 0C209.2 0 197 0 185 0C172.3 0 160 0 148 0C135.4 0 123 0 111 0C98.5 0 86 0 74 0C61.5 0 49 0 37 0C24.6 0 12 0 6 0H0V128Z" fill="#BC82AA"/>
</g>
</g>
<defs>
<filter id="filter0_d_31_95" x="-4" y="0" width="1448" height="296" filterUnits="userSpaceOnUse" color-interpolation-filters="sRGB">
<feFlood flood-opacity="0" result="BackgroundImageFix"/>
<feColorMatrix in="SourceAlpha" type="matrix" values="0 0 0 0 0 0 0 0 0 0 0 0 0 0 0 0 0 0 127 0" result="hardAlpha"/>
<feOffset dy="4"/>
<feGaussianBlur stdDeviation="2"/>
<feComposite in2="hardAlpha" operator="out"/>
<feColorMatrix type="matrix" values="0 0 0 0 0 0 0 0 0 0 0 0 0 0 0 0 0 0 0.25 0"/>
<feBlend mode="normal" in2="BackgroundImageFix" result="effect1_dropShadow_31_95"/>
<feBlend mode="normal" in="SourceGraphic" in2="effect1_dropShadow_31_95" result="shape"/>
</filter>
<clipPath id="clip0_31_95">
<rect width="1440" height="320" fill="white"/>
</clipPath>
</defs>
</svg>
